<?xml version="1.0" standalone="no"?>
<!DOCTYPE svg PUBLIC "-//W3C//DTD SVG 20010904//EN"
 "http://www.w3.org/TR/2001/REC-SVG-20010904/DTD/svg10.dtd">
<svg version="1.0" xmlns="http://www.w3.org/2000/svg"
 width="345.000000pt" height="345.000000pt" viewBox="0 0 345.000000 345.000000"
 preserveAspectRatio="xMidYMid meet">
<metadata>
Created by potrace 1.14, written by Peter Selinger 2001-2017
</metadata>
<g transform="translate(0.000000,345.000000) scale(0.100000,-0.100000)"
fill="#000000" stroke="none">
<path d="M1535 3016 c-92 -15 -234 -53 -252 -68 -7 -6 -13 -7 -13 -3 0 4 -7 2
-15 -5 -8 -7 -15 -9 -15 -5 0 4 -11 0 -25 -9 -13 -9 -31 -16 -39 -16 -8 0 -16
-3 -18 -7 -1 -5 -21 -17 -43 -28 -168 -83 -351 -249 -472 -430 -64 -96 -153
-278 -168 -345 -1 -8 -8 -35 -15 -60 -27 -99 -38 -218 -35 -365 4 -145 9 -175
59 -365 19 -72 145 -319 168 -328 4 -2 8 -8 8 -13 0 -24 150 -187 243 -264 98
-81 257 -172 372 -213 17 -5 39 -13 50 -18 11 -4 29 -9 40 -11 11 -2 31 -8 45
-13 14 -5 41 -12 60 -15 19 -3 62 -9 95 -14 63 -9 322 -7 365 3 14 3 50 11 80
17 131 27 306 98 420 172 80 52 75 48 134 99 242 212 384 450 447 751 23 107
33 342 18 422 -4 22 -9 56 -12 75 -3 19 -15 67 -26 107 -74 256 -201 457 -407
642 -59 54 -231 171 -250 171 -8 0 -14 5 -14 10 0 6 -8 10 -18 10 -10 0 -22 4
-28 10 -16 16 -175 69 -274 91 -117 26 -346 33 -465 15z"/>
</g>
</svg>
